<svg width="97" height="87" viewBox="0 0 97 87" fill="none" xmlns="http://www.w3.org/2000/svg">
<g id="React" clip-path="url(#clip0_209_18)">
<path id="Vector" d="M48.5 52.2155C53.2749 52.2155 57.1456 48.3134 57.1456 43.5C57.1456 38.6865 53.2749 34.7844 48.5 34.7844C43.7251 34.7844 39.8543 38.6865 39.8543 43.5C39.8543 48.3134 43.7251 52.2155 48.5 52.2155Z" fill="#61DAFB"/>
<g id="Group">
<path id="Vector_2" d="M48.5 61.3562C74.1212 61.3562 94.8913 53.3617 94.8913 43.5C94.8913 33.6383 74.1212 25.6438 48.5 25.6438C22.8788 25.6438 2.1087 33.6383 2.1087 43.5C2.1087 53.3617 22.8788 61.3562 48.5 61.3562Z" stroke="#61DAFB"/>
<path id="Vector_3" d="M33.1601 52.4281C45.9707 74.7961 63.2236 88.9316 71.6956 84.0008C80.1677 79.0699 76.6505 56.9399 63.8399 34.5719C51.0293 12.204 33.7764 -1.93159 25.3043 2.99927C16.8323 7.93012 20.3494 30.0602 33.1601 52.4281Z" stroke="#61DAFB"/>
<path id="Vector_4" d="M33.1601 34.5719C20.3495 56.9399 16.8323 79.0699 25.3044 84.0008C33.7764 88.9316 51.0294 74.7961 63.84 52.4281C76.6506 30.0602 80.1677 7.93012 71.6957 2.99927C63.2237 -1.93158 45.9707 12.204 33.1601 34.5719Z" stroke="#61DAFB"/>
</g>
</g>
<defs>
<clipPath id="clip0_209_18">
<rect width="97" height="87" fill="white"/>
</clipPath>
</defs>
</svg>
